<?xml version="1.0" encoding="utf-8"?>
<svg xmlns:xlink="http://www.w3.org/1999/xlink" width="81px" height="81px" viewbox="0 0 81 81" version="1.1"
     xmlns="http://www.w3.org/2000/svg">
    <defs>
        <linearGradient x1="379.49185" y1="251.36469" x2="557.75946" y2="251.36469" id="gradient_1">
            <stop offset="0" stop-color="#000000"/>
            <stop offset="1" stop-color="#6D5656"/>
        </linearGradient>
        <linearGradient x1="394.50836" y1="383.22546" x2="818.9721" y2="107.68693" id="gradient_2">
            <stop offset="0" stop-color="#000000"/>
            <stop offset="1" stop-color="#6D5656"/>
        </linearGradient>
        <linearGradient x1="358.3333" y1="284.44446" x2="504.16666" y2="227.5" id="gradient_3">
            <stop offset="0" stop-color="#000000"/>
            <stop offset="1" stop-color="#6D5656"/>
        </linearGradient>
        <path d="M0 0L80 0L80 80L0 80L0 0Z" id="path_1"/>
        <clipPath id="mask_1">
            <use xlink:href="#path_1"/>
        </clipPath>
    </defs>
    <g id="logo-bird-ninja" transform="translate(0.5 0.5)">
        <path d="M0 0L80 0L80 80L0 80L0 0Z" id="Background" fill="none" fill-rule="evenodd" stroke="none"/>
        <g clip-path="url(#mask_1)">
            <g id="layer1" transform="translate(1.2652621 5.3359323)">
                <g id="g3028">
                    <path d="M0 0C5.50448 1.5994 5.50448 1.5994 5.50448 1.5994L0.371531 3.10636L3.88349 4.57698L0.186083 5.26837L0 0Z"
                          transform="translate(71.399055 25.694046)" id="path3014" fill="#1A1A1A" fill-rule="evenodd"
                          stroke="#000000" stroke-width="1"/>
                    <path d="M0.0345627 0C-0.705104 9.39768 10.5534 24.4649 21.6795 25.6613C26.0271 26.1288 32.4079 22.0215 32.0757 17.6615C31.1492 5.50132 12.379 4.89027 0.0345688 0L0.0345627 0Z"
                          transform="translate(19.733643 15.442106)" id="path3057-6" fill="url(#gradient_1)"
                          fill-rule="evenodd" stroke="none"/>
                    <path d="M0 41.1463C12.1822 54.7248 34.1219 60.8446 50.0781 54.2727C63.3898 48.7899 72.021 31.1026 72.0253 17.0748C72.0282 7.4678 62.4067 -3.45877 48.1634 1.04562C41.7653 3.06896 36.8838 9.49609 32.7606 15.3341C23.5477 27.5964 15.3781 35.8343 1.52588e-05 41.1463L0 41.1463Z"
                          transform="translate(0 9.075989)" id="path3055" fill="url(#gradient_2)" fill-rule="evenodd"
                          stroke="none"/>
                    <path d="M0 6.10351e-06C0.775104 9.39483 14.3015 22.4643 25.4757 21.8632C29.842 21.6283 35.4825 16.552 34.4563 12.3015C31.5941 0.446692 12.9683 2.84995 6.10352e-06 0L0 6.10351e-06Z"
                          transform="translate(9.164057 22.7848)" id="path3057" fill="url(#gradient_3)"
                          fill-rule="evenodd" stroke="none"/>
                    <path d="M4.05801 0C7.93052 0.346011 14.7688 1.57213 20.1649 1.90649C24.5937 2.18092 29.8267 2.06226 33.4766 1.98574C36.1201 6.51675 36.3341 11.3475 35.588 15.5748C27.805 16.8782 22.0099 15.9172 15.6598 13.8878C9.88279 12.0416 4.15281 9.25992 0 4.6242C1.85188 1.9895 2.48212 1.42036 4.05801 0L4.05801 0Z"
                          transform="translate(35.997105 15.387615)" id="path3038" fill="#C75450" fill-rule="evenodd"
                          stroke="none"/>
                    <g id="g3044" transform="translate(59.4296 20.403862)">
                        <g id="g3016">
                            <g id="g3024">
                                <path d="M9.37763 6.05209C8.61207 8.06039 5.93835 8.82297 3.40573 7.75538C0.873114 6.68778 -0.559369 4.19428 0.206195 2.18598C0.971759 0.177682 3.64547 -0.584909 6.17808 0.482693C8.71072 1.5503 10.1432 4.0438 9.37763 6.05209L9.37763 6.05209Z"
                                      id="path3012" fill="#FFFFFF" fill-rule="evenodd" stroke="none"/>
                                <path d="M6.58709 4.41369C6.00931 5.92939 4.10376 6.55228 2.33093 5.80496C0.558081 5.05763 -0.410693 3.22311 0.16709 1.70741C0.744872 0.191711 2.65043 -0.431176 4.42326 0.316137C6.19609 1.06346 7.16487 2.898 6.58709 4.41369L6.58709 4.41369Z"
                                      transform="translate(2.5280943 1.3959373)" id="path3797" fill="#1A1A1A"
                                      fill-rule="evenodd" stroke="none"/>
                                <path d="M2.22357 1.52783C2.0193 2.06371 1.36978 2.29413 0.772839 2.0425C0.175891 1.79086 -0.142432 1.15245 0.0618408 0.616574C0.266113 0.0806916 0.915637 -0.149735 1.51259 0.101907C2.10953 0.353543 2.42784 0.991947 2.22357 1.52783L2.22357 1.52783Z"
                                      transform="translate(6.177047 2.3362973)" id="path3801" fill="#FFFFFF"
                                      fill-rule="evenodd" stroke="none"/>
                            </g>
                        </g>
                    </g>
                    <path d="M7.19044 5.56166C6.21672 4.95443 5.40932 4.12123 4.44015 3.50652C3.50687 2.87687 2.54419 2.26958 1.49763 1.84692C1.0389 1.68833 0.579822 1.53064 0.123242 1.36591C-0.188928 1.44034 0.182605 1.16121 0.247558 1.05791C0.56355 0.705273 0.879541 0.352637 1.19552 0C1.60548 0.0540191 1.96763 0.279831 2.36693 0.375766C3.4475 0.818298 4.42406 1.47206 5.40054 2.10335C6.35998 2.75084 7.2552 3.49289 8.22237 4.12656C8.50877 4.18015 8.49338 4.37935 8.27273 4.50015C7.91196 4.85398 7.55121 5.20783 7.19044 5.56166L7.19044 5.56166Z"
                          transform="translate(61.338474 18.021122)" id="path3043" fill="#1A1A1A" fill-rule="evenodd"
                          stroke="none"/>
                    <path d="M29.0654 16.2348C27.1988 16.1699 25.026 16.4019 23.5954 14.6757C22.3358 13.2957 21.3109 11.5777 20.6499 9.70534C20.5352 8.34523 20.534 6.68374 19.2918 6.03752C17.8582 5.12766 16.1642 5.25861 14.5966 5.00674C11.6383 4.80997 8.81984 6.04335 6.06241 7.13446C4.75333 7.64827 3.14409 7.55391 2.18433 6.24271C1.4367 5.38511 0.982311 4.27444 0.510368 3.21123C-0.180812 2.52297 -0.222322 1.45373 0.710716 1.16844C1.28516 0.778956 1.85961 0.389477 2.43404 0C3.3166 1.91009 3.98809 4.36445 5.8492 5.21554C7.75987 5.69924 9.53198 4.40064 11.3332 3.87455C13.8866 2.90306 16.6154 2.75682 19.2526 3.27196C20.7711 3.43155 22.6087 4.09002 23.0678 6.04759C23.2021 7.74508 23.5081 9.39848 24.5231 10.6732C25.4835 12.3982 26.8919 14.0424 28.7408 14.1133C29.3528 14.3534 31.3555 13.863 31.135 14.4515C30.4451 15.0459 29.7553 15.6403 29.0654 16.2348L29.0654 16.2348Z"
                          transform="translate(11.792278 4.3437047)" id="path3095" fill="#C75450" fill-rule="evenodd"
                          stroke="none"/>
                    <path d="M15.0917 19.683C13.7381 18.8004 12.0824 18.0217 11.5067 16.3969C11.1254 15.309 10.7337 14.2089 10.5428 13.0707C10.3756 11.5238 10.5475 9.96496 10.4703 8.4146C10.7198 7.42528 10.0782 6.51511 9.08729 6.33246C7.78858 5.95388 6.41482 6.00367 5.08325 5.8203C3.85923 5.75359 2.39845 6.01989 1.42762 5.09927C0.6913 4.22113 0.371439 3.08463 0.00656433 2.02071C-0.0770966 1.465 0.660849 1.44277 0.981626 1.11418C1.56697 0.742786 2.15232 0.371393 2.73766 0C2.86469 1.03518 3.3187 2.0014 3.72444 2.95038C4.28444 3.94741 5.51105 3.99499 6.52294 3.96994C8.10966 4.07089 9.72126 4.10217 11.2751 4.45467C12.2546 4.6835 13.4088 5.37692 13.3058 6.51717C13.3718 8.87961 12.9806 11.3294 13.7928 13.6075C14.1285 14.6265 14.4578 15.7265 15.3591 16.403C16.0349 17.0295 16.8847 17.4411 17.6378 17.9411C17.0208 18.4808 16.2334 18.8874 15.5512 19.3788C15.398 19.4802 15.2448 19.5816 15.0917 19.683L15.0917 19.683Z"
                          transform="translate(24.515486 0)" id="path3097" fill="#C75450" fill-rule="evenodd"
                          stroke="none"/>
                </g>
            </g>
        </g>
    </g>
</svg>